<svg xmlns="http://www.w3.org/2000/svg" width="1024" height="1024" viewBox="0 0 1024 1024"><path d="M41.91,682.266h.14a41.91,41.91,0,0,1,41.91,41.91V975.1a41.91,41.91,0,0,1-41.91,41.91h-.14A41.91,41.91,0,0,1,0,975.1V724.176a41.91,41.91,0,0,1,41.91-41.91Z" fill="#fff"/><path d="M43.307,933.321H295.395a41.91,41.91,0,1,1,0,83.82H43.307a41.91,41.91,0,1,1,0-83.82Z" fill="#fff"/><path d="M13.495,1002.91a41.742,41.742,0,0,1,.964-59.163L356.3,613.93A41.91,41.91,0,1,1,414.7,674L72.854,1003.87a42.078,42.078,0,0,1-59.359-.964ZM981.964,5.588h.126A41.91,41.91,0,0,1,1024,47.5V298.441a41.91,41.91,0,0,1-41.91,41.91h-.126a41.91,41.91,0,0,1-41.91-41.91V47.5a41.91,41.91,0,0,1,41.91-41.91Z" fill="#fff"/><path d="M728.6,5.588H980.693a41.91,41.91,0,0,1,0,83.82H728.6a41.91,41.91,0,0,1,0-83.82Z" fill="#fff"/><path d="M1010.51,19.7a41.742,41.742,0,0,1-.964,59.163L667.7,408.692a41.91,41.91,0,1,1-58.395-60.071L951.152,18.8a42.077,42.077,0,0,1,59.358.894ZM48.9,0H299.824a41.91,41.91,0,0,1,41.91,41.91v.126a41.91,41.91,0,0,1-41.91,41.91H48.9a41.91,41.91,0,0,1-41.91-41.91V41.91A41.91,41.91,0,0,1,48.9,0Z" fill="#fff"/><path d="M48.9,1.4a41.91,41.91,0,0,1,41.91,41.91V295.465a41.91,41.91,0,1,1-83.82,0V43.307A41.91,41.91,0,0,1,48.9,1.4Z" fill="#fff"/><path d="M21.095,13.495a41.742,41.742,0,0,1,59.163.964L410.075,356.3A41.91,41.91,0,1,1,350,414.7L20.131,72.854a42.078,42.078,0,0,1,.964-59.359ZM725.559,940.054H976.5a41.91,41.91,0,0,1,41.91,41.91v.126A41.91,41.91,0,0,1,976.5,1024H725.559a41.91,41.91,0,0,1-41.91-41.91v-.126A41.91,41.91,0,0,1,725.559,940.054Z" fill="#fff"/><path d="M976.5,686.751a41.91,41.91,0,0,1,41.91,41.91V980.693a41.91,41.91,0,0,1-83.82,0V728.6a41.91,41.91,0,0,1,41.91-41.854Z" fill="#fff"/><path d="M1004.3,1010.51a41.742,41.742,0,0,1-59.163-.964L615.306,667.7a41.91,41.91,0,1,1,60.071-58.395l329.817,341.846a42.078,42.078,0,0,1-.894,59.358Z" fill="#fff"/></svg>