<svg id="icon_点赞" data-name="icon/点赞" xmlns="http://www.w3.org/2000/svg" width="24" height="24" viewBox="0 0 24 24">
  <rect id="矩形_1513" data-name="矩形 1513" width="24" height="24" opacity="0"/>
  <path id="路径_695" data-name="路径 695" d="M879.39,538.05q.466-2.088.653-3.022c.312-1.57-.5-3.028-2.1-3.028-1.448,0-2.175.72-2.6,2.158l-.011.042a6.514,6.514,0,0,1-1.172,2.711,2.971,2.971,0,0,1-2.245,1.106l-.411.008a1.81,1.81,0,0,0-1.763,1.816V545.8a2.191,2.191,0,0,0,2.183,2.2h7.735a3.772,3.772,0,0,0,3.546-2.511L884.8,541a2.2,2.2,0,0,0-1.312-2.816,2.177,2.177,0,0,0-.741-.131Zm-1.452-4.85c.736,0,1.116.684.936,1.592q-.213,1.074-.811,3.725a.6.6,0,0,0,.58.733h4.1a.968.968,0,0,1,.336.06,1,1,0,0,1,.6,1.28l-1.6,4.492a2.576,2.576,0,0,1-2.423,1.718h-7.723a1,1,0,0,1-.991-1v-5.959a.614.614,0,0,1,.6-.616l.41-.009a4.146,4.146,0,0,0,3.139-1.548,7.65,7.65,0,0,0,1.4-3.185c.291-.964.618-1.283,1.456-1.283Z" transform="translate(-865.333 -528)"/>
  <path id="路径_696" data-name="路径 696" d="M879.39,538.05q.466-2.088.653-3.022c.312-1.57-.5-3.028-2.1-3.028-1.448,0-2.175.72-2.6,2.158l-.011.042a6.514,6.514,0,0,1-1.172,2.711,2.971,2.971,0,0,1-2.245,1.106l-.411.008a1.81,1.81,0,0,0-1.763,1.816V545.8a2.191,2.191,0,0,0,2.183,2.2h7.735a3.772,3.772,0,0,0,3.546-2.511L884.8,541a2.2,2.2,0,0,0-1.312-2.816,2.177,2.177,0,0,0-.741-.131Z" transform="translate(-865.333 -528)" opacity="0"/>
</svg>
