<svg id="icon_live" data-name="icon/live" xmlns="http://www.w3.org/2000/svg" width="24" height="24" viewBox="0 0 24 24">
  <rect id="矩形_1525" data-name="矩形 1525" width="24" height="24" opacity="0"/>
  <path id="路径_706" data-name="路径 706" d="M866.974,620.476l1.881-.936a1.333,1.333,0,0,1,1.927,1.193v4.822a1.333,1.333,0,0,1-1.949,1.182l-1.859-.97v.772a2.094,2.094,0,0,1-2.094,2.094h-7.234a2.1,2.1,0,0,1-2.095-2.094v-6.854a2.094,2.094,0,0,1,2.095-2.094h7.234a2.093,2.093,0,0,1,2.094,2.094Zm0,1.276v2.727l2.388,1.245a.19.19,0,0,0,.256-.081.194.194,0,0,0,.022-.088v-4.822a.19.19,0,0,0-.275-.171Zm-1.142,4.787v-6.854a.952.952,0,0,0-.952-.952h-7.234a.952.952,0,0,0-.952.952h0v6.854a.952.952,0,0,0,.952.952h7.234A.952.952,0,0,0,865.832,626.539Zm-6.663-4.189a1.142,1.142,0,1,1,1.142-1.142A1.142,1.142,0,0,1,859.169,622.35Z" transform="translate(-851.167 -611.112)"/>
</svg>
