<svg id="icon_音频" data-name="icon/音频" xmlns="http://www.w3.org/2000/svg" width="24" height="24" viewBox="0 0 24 24">
  <rect id="矩形_1523" data-name="矩形 1523" width="24" height="24" opacity="0"/>
  <path id="路径_704" data-name="路径 704" d="M782.595,620.827a2.856,2.856,0,1,1-1.714-.571,2.854,2.854,0,0,1,1.714.571V617.21a.571.571,0,1,1,1.142,0v5.9a.571.571,0,0,1-1.142,0Zm-1.714-5.331a.572.572,0,0,1,0,1.143,6.469,6.469,0,1,0,5.751,3.5.571.571,0,1,1,1.008-.538l.007.013a7.616,7.616,0,1,1-6.766-4.117Zm0,9.329a1.714,1.714,0,1,0-1.713-1.713A1.713,1.713,0,0,0,780.881,624.825Zm3.808-5.9a1.748,1.748,0,1,1,0-3.427,1.748,1.748,0,1,1,0,3.427Zm0-1.142c.556,0,.952-.3.952-.571s-.4-.571-.952-.571c-.526,0-.952.331-.952.571S784.163,617.781,784.689,617.781Z" transform="translate(-768.881 -611.112)"/>
</svg>
