<svg id="icon_缩小" data-name="icon/缩小" xmlns="http://www.w3.org/2000/svg" width="24" height="24" viewBox="0 0 24 24">
  <rect id="矩形_1547" data-name="矩形 1547" width="24" height="24" fill="#fdb216" opacity="0"/>
  <g id="组_1347" data-name="组 1347" transform="translate(-809 -794)">
    <rect id="矩形_1546" data-name="矩形 1546" width="16" height="16" transform="translate(813 798)" fill="#fdb216" opacity="0"/>
    <path id="路径_715" data-name="路径 715" d="M953.717,589.958a.6.6,0,0,1,0-1.2h2.8a1.4,1.4,0,0,1,1.4,1.4h0v2.8a.6.6,0,0,1-1.2,0v-2.8a.2.2,0,0,0-.2-.2h-2.8Z" transform="translate(-139.717 220.042)" fill="#fdb216"/>
    <path id="路径_716" data-name="路径 716" d="M956.717,578.958a.6.6,0,1,1,1.2,0v2.8a1.4,1.4,0,0,1-1.4,1.4h-2.8a.6.6,0,0,1,0-1.2h2.8a.2.2,0,0,0,.2-.2h0Z" transform="translate(-139.717 220.042)" fill="#fdb216"/>
    <path id="路径_717" data-name="路径 717" d="M967.717,581.958a.6.6,0,1,1,0,1.2h-2.8a1.4,1.4,0,0,1-1.4-1.4h0v-2.8a.6.6,0,1,1,1.2,0v2.8a.2.2,0,0,0,.2.2h2.8Z" transform="translate(-139.717 220.042)" fill="#fdb216"/>
    <path id="路径_718" data-name="路径 718" d="M964.717,592.958a.6.6,0,0,1-1.2,0v-2.8a1.4,1.4,0,0,1,1.4-1.4h2.8a.6.6,0,1,1,0,1.2h-2.8a.2.2,0,0,0-.2.2h0Z" transform="translate(-139.717 220.042)" fill="#fdb216"/>
  </g>
</svg>
