<svg id="icon_更多" data-name="icon/更多" xmlns="http://www.w3.org/2000/svg" width="24" height="24" viewBox="0 0 24 24">
  <g id="矩形_1545" data-name="矩形 1545" fill="#fff" stroke="#707070" stroke-width="1" opacity="0">
    <rect width="24" height="24" stroke="none"/>
    <rect x="0.5" y="0.5" width="23" height="23" fill="none"/>
  </g>
  <g id="icon_更多-2" data-name="icon/更多" transform="translate(4 4)">
    <rect id="矩形_981" data-name="矩形 981" width="16" height="16" fill="none"/>
    <path id="联合_62" data-name="联合 62" d="M11,16a2,2,0,0,1-2-2V11a2,2,0,0,1,2-2h3a2,2,0,0,1,2,2v3a2,2,0,0,1-2,2ZM2,16a2,2,0,0,1-2-2V11A2,2,0,0,1,2,9H5a2,2,0,0,1,2,2v3a2,2,0,0,1-2,2Zm9-9A2,2,0,0,1,9,5V2a2,2,0,0,1,2-2h3a2,2,0,0,1,2,2V5a2,2,0,0,1-2,2ZM2,7A2,2,0,0,1,0,5V2A2,2,0,0,1,2,0H5A2,2,0,0,1,7,2V5A2,2,0,0,1,5,7Z"/>
  </g>
</svg>
