<svg id="icon_打开" data-name="icon/打开" xmlns="http://www.w3.org/2000/svg" width="24" height="24" viewBox="0 0 24 24">
  <rect id="矩形_1528" data-name="矩形 1528" width="24" height="24" opacity="0"/>
  <g id="组_1303" data-name="组 1303" transform="translate(-867.772 -676.725)">
    <path id="路径_709" data-name="路径 709" d="M884.862,681.125H875.37a2.2,2.2,0,0,0-2.2,2.2v1.657a.6.6,0,0,0,1.2,0v-1.657a1,1,0,0,1,1-1h9.492a1,1,0,0,1,1,1v10.8a1,1,0,0,1-1,1H875.37a1,1,0,0,1-1-1v-1.656a.6.6,0,0,0-1.2,0v1.656a2.2,2.2,0,0,0,2.2,2.2h9.492a2.2,2.2,0,0,0,2.2-2.2v-10.8A2.2,2.2,0,0,0,884.862,681.125Z"/>
    <path id="路径_710" data-name="路径 710" d="M879.862,690.355h-6.78a.6.6,0,0,1,0-1.2h5.4l-1.69-1.79a.6.6,0,0,1,.03-.85.61.61,0,0,1,.85.03l2.63,2.8A.6.6,0,0,1,879.862,690.355Z"/>
  </g>
</svg>
