<svg id="icon_阅读" data-name="icon/阅读" xmlns="http://www.w3.org/2000/svg" width="24" height="24" viewBox="0 0 24 24">
  <rect id="矩形_1529" data-name="矩形 1529" width="24" height="24" opacity="0"/>
  <path id="路径_711" data-name="路径 711" d="M881.137,658.256h-4.086a4.559,4.559,0,0,0-2.471.727l-.872.559-.871-.559a4.559,4.559,0,0,0-2.471-.727H866.28a.572.572,0,0,0-.572.572v10.143a.571.571,0,0,0,.572.571h4.086a4.564,4.564,0,0,1,2.471.727l.793.51a.143.143,0,0,0,.077.024.127.127,0,0,0,.076-.024l.793-.51a4.58,4.58,0,0,1,2.475-.727h4.086a.57.57,0,0,0,.571-.571V658.828A.571.571,0,0,0,881.137,658.256Zm-10.771,10h-3.372v-8.714h3.372a3.275,3.275,0,0,1,1.776.521l.872.559.123.081v8.25A5.846,5.846,0,0,0,870.366,668.256Zm10.057,0h-3.372a5.845,5.845,0,0,0-2.771.7V660.7l.123-.081.871-.559a3.281,3.281,0,0,1,1.777-.521h3.372Zm-8.77-6.428h-3.318a.131.131,0,0,0-.127.134v.8a.132.132,0,0,0,.127.134h3.316a.131.131,0,0,0,.127-.134v-.8A.128.128,0,0,0,871.653,661.828Zm3.984.134v.8a.131.131,0,0,0,.127.134h3.316a.132.132,0,0,0,.127-.134v-.8a.131.131,0,0,0-.127-.134h-3.316A.131.131,0,0,0,875.637,661.962Zm-3.984,2.366h-3.318a.131.131,0,0,0-.127.134v.8a.132.132,0,0,0,.127.134h3.316a.131.131,0,0,0,.127-.134v-.8A.128.128,0,0,0,871.653,664.328Zm7.429,0h-3.318a.131.131,0,0,0-.127.134v.8a.131.131,0,0,0,.127.134h3.316a.132.132,0,0,0,.127-.134v-.8A.129.129,0,0,0,879.082,664.328Z" transform="translate(-861.708 -652.529)"/>
</svg>
