<svg id="icon_视频" data-name="icon/视频" xmlns="http://www.w3.org/2000/svg" width="24" height="24" viewBox="0 0 24 24">
  <rect id="矩形_1524" data-name="矩形 1524" width="24" height="24" opacity="0"/>
  <path id="路径_705" data-name="路径 705" d="M831.717,629.775c-.544-.369-1.389-.338-2.571.168A7.613,7.613,0,1,1,832.6,626.5a.571.571,0,0,1-1.023-.509,6.466,6.466,0,1,0-2.924,2.924l.028-.013c1.513-.651,2.752-.7,3.679-.069a.571.571,0,0,1-.642.944Zm-5.941-8.377a1.142,1.142,0,1,1,1.142-1.142A1.142,1.142,0,0,1,825.776,621.4Zm2.856,2.856a1.143,1.143,0,1,1,1.142-1.142A1.142,1.142,0,0,1,828.632,624.254Zm-2.856,2.856a1.142,1.142,0,1,1,1.142-1.142A1.142,1.142,0,0,1,825.776,627.11Zm-2.856-2.856a1.143,1.143,0,1,1,1.143-1.142A1.142,1.142,0,0,1,822.92,624.254Z" transform="translate(-813.776 -611.112)"/>
</svg>
