<svg id="icon_评论" data-name="icon/评论" xmlns="http://www.w3.org/2000/svg" width="24" height="24" viewBox="0 0 24 24">
  <rect id="矩形_1514" data-name="矩形 1514" width="24" height="24" opacity="0"/>
  <path id="路径_697" data-name="路径 697" d="M843.146,544.487c-.206-.351-.342-.586-.409-.711a8,8,0,1,1,2.946,3.09q-.187-.111-.376-.221l-1.958.534a.6.6,0,0,1-.736-.737l.533-1.955Zm1.224.071-.323,1.187,1.187-.324a.606.606,0,0,1,.46.06c.2.118.405.236.606.356a6.8,6.8,0,1,0-2.505-2.628c.069.129.242.428.513.885A.6.6,0,0,1,844.37,544.558Zm2.738-1.327a.6.6,0,0,1,.756-.932l.011.009a3,3,0,0,0,3.833,0,.6.6,0,0,1,.767.923,4.2,4.2,0,0,1-5.367,0Z" transform="translate(-837.792 -528)"/>
</svg>
