<svg id="icon_相片" data-name="icon/相片" xmlns="http://www.w3.org/2000/svg" width="24" height="24" viewBox="0 0 24 24">
  <rect id="矩形_1527" data-name="矩形 1527" width="24" height="24" opacity="0"/>
  <path id="路径_708" data-name="路径 708" d="M856.473,575.992V579.8a2.09,2.09,0,0,1-2.09,2.09h-11.02a2.09,2.09,0,0,1-2.09-2.09v-9.12a2.09,2.09,0,0,1,2.09-2.09h11.02a2.09,2.09,0,0,1,2.09,2.09Zm-1.14-1.33v-3.977a.95.95,0,0,0-.95-.95h-11.02a.95.95,0,0,0-.95.95v6.136a5.233,5.233,0,0,1,.76-.056,5.106,5.106,0,0,1,3.265,1.173,6.348,6.348,0,0,1,8.9-3.276Zm0,1.465a2.153,2.153,0,0,0-.777-.586,5.222,5.222,0,0,0-7.08,2.875l-.249.687a.57.57,0,0,1-.915.233c-.293-.261-.509-.447-.644-.555a3.97,3.97,0,0,0-2.5-.876,4.013,4.013,0,0,0-.76.072V579.8a.95.95,0,0,0,.95.95h11.02a.95.95,0,0,0,.95-.95v-3.678Zm-9.88-1.452a1.71,1.71,0,1,1,1.71-1.71A1.711,1.711,0,0,1,845.453,574.675Zm0-1.14a.57.57,0,1,0-.57-.57A.57.57,0,0,0,845.453,573.535Z" transform="translate(-836.873 -563.245)"/>
</svg>
