<svg id="icon_分享" data-name="icon/分享" xmlns="http://www.w3.org/2000/svg" width="24" height="24" viewBox="0 0 24 24">
  <rect id="矩形_1515" data-name="矩形 1515" width="24" height="24" opacity="0"/>
  <path id="路径_698" data-name="路径 698" d="M826.066,540.4a.6.6,0,1,1,1.2,0v5a2.2,2.2,0,0,1-2.2,2.2h-10.8a2.2,2.2,0,0,1-2.2-2.2V535.2a2.2,2.2,0,0,1,2.2-2.2h5.2a.6.6,0,0,1,0,1.2h-5.2a1,1,0,0,0-1,1v10.2a1,1,0,0,0,1,1h10.8a1,1,0,0,0,1-1Zm-.789-5.2-1.683-1.789a.6.6,0,1,1,.874-.822l2.635,2.8a.6.6,0,0,1-.437,1.011h-3.012a2.9,2.9,0,0,0-2.788,3V543a.6.6,0,0,1-1.2,0v-3.6a4.1,4.1,0,0,1,3.988-4.2Z" transform="translate(-807.667 -528)"/>
</svg>
