<svg xmlns="http://www.w3.org/2000/svg" width="819.155" height="1024" viewBox="0 0 819.155 1024"><g transform="translate(-102.425)"><path d="M102.426,102.394V921.542L716.787,511.968Z" fill="#fff"/><path d="M153.623,102.394V921.542L767.984,511.968Z" fill="#fff"/><path d="M259.6,15.871V834.508L879.081,429.029Z" fill="#fff"/><path d="M261.136,189.428,259.6,1008.065,875.5,599Z" fill="#fff"/><path d="M204.819,102.394m-102.394,0A102.394,102.394,0,1,0,204.819,0,102.393,102.393,0,0,0,102.425,102.394Z" fill="#fff"/><path d="M819.181,409.574c-56.317,0-102.394,46.077-102.394,102.394s46.077,100.346,102.394,102.394c57.852,2.048,102.906-45.053,102.394-102.394-.512-56.316-46.077-102.394-102.394-102.394ZM204.819,819.148c-56.316,0-102.394,46.077-102.394,102.394s46.077,100.346,102.394,102.394c53.757,2.048,100.858-45.053,102.394-102.394,1.536-56.317-46.077-102.394-102.394-102.394Z" fill="#fff"/></g></svg>