<svg xmlns="http://www.w3.org/2000/svg" width="880.81" height="702.68" viewBox="0 0 880.81 702.68"><g transform="translate(-83.798 -199.805)"><path d="M545.963,208.043a66.68,66.68,0,0,0-67.413,1.877L232.107,364.885h-81.92A66.463,66.463,0,0,0,83.8,431.274V671.061a66.463,66.463,0,0,0,66.389,66.389h81.92L478.72,892.416a65.693,65.693,0,0,0,35.328,10.069,64.8,64.8,0,0,0,32.085-8.363,66.287,66.287,0,0,0,34.3-58.027V266.068a66.782,66.782,0,0,0-34.475-58.027ZM512,832.683,260.1,674.3a34.342,34.342,0,0,0-18.091-5.291H152.064V433.152h89.941a33.466,33.466,0,0,0,18.091-5.291L512,269.483Zm294.741-281.6a214.548,214.548,0,0,0-107.52-185.856,34.134,34.134,0,0,0-33.963,59.221,146.432,146.432,0,0,1,0,253.611,34.1,34.1,0,1,0,34.133,59.051A215.229,215.229,0,0,0,806.741,551.083Z" fill="#fff"/><path d="M784.9,239.957a34.1,34.1,0,0,0-34.133,59.051,291.028,291.028,0,0,1,0,504.15,34.125,34.125,0,0,0,17.067,63.659,34.661,34.661,0,0,0,17.067-4.608,359.172,359.172,0,0,0,0-622.25Z" fill="#fff"/></g></svg>