<svg xmlns="http://www.w3.org/2000/svg" width="595.517" height="660.804" viewBox="0 0 595.517 660.804"><path d="M800.128,727.36l-9.856,12.608a16,16,0,0,1-22.464,2.768L214.144,310.16a16,16,0,0,1-2.752-22.464l9.856-12.608a16,16,0,0,1,22.448-2.752L797.36,704.912A16,16,0,0,1,800.128,727.36ZM414.944,657.024l-1.728-1.68a18.912,18.912,0,0,0-13.84-6.064H321.632c-22.24,0-26.928-.576-36.256-10.192-9.072-9.376-9.472-13.04-9.472-35.872V431.328a16,16,0,0,1,16-16h16a16,16,0,0,1,16,16V601.28h75.472a66.885,66.885,0,0,1,48.032,20.368l162.4,142.368V685.264a16,16,0,0,1,16-16h16a16,16,0,0,1,16,16V768.1c0,19.808-.08,26.32-.64,33.392-1.328,16.432-4.368,25.952-17.92,32.224-14.752,6.8-24.512,1.84-37.072-9.36-5.184-4.624-10.16-9.76-22.208-22.672L414.944,657.04ZM426,367.808a16,16,0,0,1,1.488-22.56L580.48,211.136c12.032-12.912,17.024-18.064,22.208-22.672,12.56-11.2,22.32-16.16,37.056-9.36,13.568,6.272,16.608,15.792,17.92,32.208.576,7.088.656,13.6.656,33.408V513.712a16,16,0,0,1-16,16h-16a16,16,0,0,1-16-16V248.8L459.12,381.328a16,16,0,0,1-22.56-1.488Z" transform="translate(-207.995 -176.006)" fill="#fff"/></svg>