<svg xmlns="http://www.w3.org/2000/svg" width="727.04" height="727.04" viewBox="0 0 727.04 727.04"><g transform="translate(-153.6 -145.92)"><path d="M616.96,435.2c-7.68,0-12.8-2.56-17.92-7.68-10.24-10.24-10.24-25.6,0-35.84L837.12,153.6c10.24-10.24,25.6-10.24,35.84,0s10.24,25.6,0,35.84L634.88,427.52A27.654,27.654,0,0,1,616.96,435.2Z" fill="#fff"/><path d="M739.84,440.32H609.28c-15.36,0-25.6-10.24-25.6-25.6V281.6c0-15.36,10.24-25.6,25.6-25.6s25.6,10.24,25.6,25.6V386.56H739.84c15.36,0,25.6,10.24,25.6,25.6S755.2,440.32,739.84,440.32ZM179.2,872.96c-7.68,0-12.8-2.56-17.92-7.68-10.24-10.24-10.24-25.6,0-35.84L399.36,591.36c10.24-10.24,25.6-10.24,35.84,0s10.24,25.6,0,35.84L197.12,865.28a27.654,27.654,0,0,1-17.92,7.68Z" fill="#fff"/><path d="M422.4,757.76c-15.36,0-25.6-10.24-25.6-25.6V627.2H291.84c-15.36,0-25.6-10.24-25.6-25.6s10.24-25.6,25.6-25.6H422.4c15.36,0,25.6,10.24,25.6,25.6V732.16C448,747.52,435.2,757.76,422.4,757.76Zm432.64,115.2c-7.68,0-12.8-2.56-17.92-7.68L599.04,627.2c-10.24-10.24-10.24-25.6,0-35.84s25.6-10.24,35.84,0L872.96,829.44c10.24,10.24,10.24,25.6,0,35.84a27.654,27.654,0,0,1-17.92,7.68Z" fill="#fff"/><path d="M609.28,760.32c-15.36,0-25.6-10.24-25.6-25.6V604.16c0-15.36,10.24-25.6,25.6-25.6H739.84c15.36,0,25.6,10.24,25.6,25.6s-10.24,25.6-25.6,25.6H634.88V734.72C634.88,750.08,624.64,760.32,609.28,760.32Zm-192-325.12c-7.68,0-12.8-2.56-17.92-7.68L161.28,189.44c-10.24-10.24-10.24-28.16,0-35.84s25.6-10.24,35.84,0L435.2,391.68c10.24,10.24,10.24,25.6,0,35.84a27.654,27.654,0,0,1-17.92,7.68Z" fill="#fff"/><path d="M422.4,440.32H291.84c-15.36,0-25.6-10.24-25.6-25.6s10.24-25.6,25.6-25.6H396.8V284.16c0-15.36,10.24-25.6,25.6-25.6S448,268.8,448,284.16V414.72C448,430.08,435.2,440.32,422.4,440.32Z" fill="#fff"/></g></svg>