<svg xmlns="http://www.w3.org/2000/svg" xmlns:xlink="http://www.w3.org/1999/xlink" viewBox="0 0 590.64 462.15"><defs><style>.cls-1,.cls-9{fill:#777;}.cls-1,.cls-11,.cls-4,.cls-7{opacity:0.1;}.cls-1,.cls-10,.cls-11,.cls-13,.cls-4{isolation:isolate;}.cls-2{fill:url(#未命名的渐变_3);}.cls-3{fill:#c8c8c8;}.cls-5{fill:#e4e4e4;}.cls-6{fill:#717171;}.cls-8{fill:#434343;}.cls-10{opacity:0.05;}.cls-11{fill:#fff;}.cls-12{fill:#a8a8a8;}.cls-13{opacity:0.2;}</style><linearGradient id="未命名的渐变_3" x1="-72.67" y1="968.76" x2="-72.09" y2="968.76" gradientTransform="matrix(312.26, 0, 0, -674.45, 22823.7, 653634.57)" gradientUnits="userSpaceOnUse"><stop offset="0" stop-color="gray" stop-opacity="0.25"/><stop offset="0.54" stop-color="gray" stop-opacity="0.12"/><stop offset="1" stop-color="gray" stop-opacity="0.1"/></linearGradient></defs><title>no pic</title><g id="图层_2" data-name="图层 2"><g id="图层_1-2" data-name="图层 1"><g id="组_3" data-name="组 3"><ellipse id="椭圆_1" data-name="椭圆 1" class="cls-1" cx="207.19" cy="433.68" rx="103.03" ry="19.52"/><path id="路径_1" data-name="路径 1" class="cls-1" d="M343.17,65.17C305.3,63.86,269.24,51.63,234.8,38.26S166.26,10.07,129.3,3c-23.77-4.56-51-5.21-70.11,7.52C40.76,22.8,34.8,44,31.6,63.59c-2.41,14.78-3.83,30.33,2.77,44.17,4.59,9.61,12.72,17.68,18.35,26.88,19.58,32,5.74,71.5-15.47,102.76-9.95,14.66-21.5,28.66-29.19,44.25s-11.23,33.52-4.51,49.47,22.53,27.64,39.73,36c34.92,16.93,76.06,21.78,116.2,24.53,88.83,6.07,178.12,3.44,267.18.8,33-1,66.07-2,98.49-7.05,18-2.83,36.6-7.33,49.67-18.17,16.6-13.77,20.71-37.08,9.59-54.34-18.65-29-70.21-36.15-83.26-67.22-7.17-17.11.19-36.16,10.62-52,22.38-34,59.87-63.88,61.84-102.78,1.36-26.71-16.67-53.47-44.54-66.11-29.21-13.25-69.72-11.58-91.27,10.35C415.6,57.65,376.6,66.34,343.17,65.17Z"/><path id="路径_2" data-name="路径 2" class="cls-2" d="M313.08,211.64l-17.92-12.09h0l9-13.45-47.34-3.78-17,13.16-21.29-11.94-17.76,2.14L200.6,181a131.67,131.67,0,0,0-1.47-14.57c.08-1.46.13-3.14.12-5,0-7.69-1-17.89-5.61-24.69l1.05-9.46-8.54-10.1a63.73,63.73,0,0,1,4.68-7.87c.29-.42.58-.83.9-1.23a21.24,21.24,0,0,0,19.83-21.06c0-.52,0-1-.05-1.54a6.18,6.18,0,0,0-.07-.62l3.27,1.75c.21.3.44.59.7.93h0l.05.07.33.4.1.13.37.41.08.09q.47.52,1,1l.11.11.44.41.13.11c.37.33.77.65,1.17,1l.12.09.51.35.16.1.59.35.07,0c.22.13.46.24.69.35l.12,0,.58.25.19.06a6.17,6.17,0,0,0,.61.19l.13,0c.26.06.51.12.78.16h0a6,6,0,0,0,.75.07h.16a3.86,3.86,0,0,0,.68,0h.14a6,6,0,0,0,.84-.1A9.2,9.2,0,0,0,230,92a3.5,3.5,0,0,0,.75-.69,2.77,2.77,0,0,0-.12-3.22h0c-.46-1.08-3.42-1.85-3.42-1.85s-9.36-3.91-9.36-7S215.53,60,191.37,56.26c0,0-15.71-.89-20.13,7.53l-.09,1c-1.3.81-2.38,2.44-3.66,2.92a5.9,5.9,0,0,0-1.58.59v-.11h0a1.47,1.47,0,0,0-.36.46,4.67,4.67,0,0,0-.49,1.76,6.73,6.73,0,0,1-.76,2.12,5,5,0,0,1-.35.54h0l-.1.16a4.25,4.25,0,0,0,2-.33,9.8,9.8,0,0,1-.59,2.34,1.93,1.93,0,0,0,1.8-1.07V74.1l.08-.1a4.81,4.81,0,0,0,.36-.85l-.06.07c.11-.38.22-.77.35-1.14a1.71,1.71,0,0,1,.29-.59,1.38,1.38,0,0,1,1.21-.4L169,76.16h.1a7,7,0,0,1-.51,1.07c-.83,1.34-2.34,2.26-2.9,3.73a5.57,5.57,0,0,0-.27,2.22c0,.43,0,.88.09,1.32v0a5,5,0,0,1-.53,3.23c-.43.64-1.13,1.13-1.37,1.86a1.88,1.88,0,0,0-.08.63,7.15,7.15,0,0,0,.39,1.88s0,0,0,0a2.82,2.82,0,0,1,.1,1.38c-.26,1.17-1.68,2.15-1.61,3.27a1.28,1.28,0,0,0,.06.43,2.39,2.39,0,0,0,1.33,1.17,5.12,5.12,0,0,0,3,.65,3.75,3.75,0,0,0,1.11-.38c-.41.95-.83,1.88-1.26,2.76-.06.14-.13.28-.2.42s-3.62-2.41-5.67,2.51a11,11,0,0,0-1.27,3.3,8,8,0,0,1-.44,1.36,8.73,8.73,0,0,1-3.9,3.51c-4.19,1.92-21.11,23-21.41,28.48a32,32,0,0,1-1.08,6.31,37.53,37.53,0,0,0-1,14.91,28.42,28.42,0,0,0,1,4.76c1.8,5.46,3,15.65,3,15.65l1.94,17.68a49.43,49.43,0,0,0,.32,7.3c-2,2.27-9.95,11.7-6.91,14.27,2.34,2,6.44,1.69,8.74,1.28-1.94,4.79-5,13.12-5.39,18.84-.59,8.47,1,19.68,3.51,24s10.88,15.35,10.88,15.35-.4,15.15,2.59,20.66,4.2,16.93,4.2,16.93,2.79,9.64,1.39,13.18,2.59,6.5-1.6,8.85-9.55,55.5-9.55,55.5-2.15,34.83,0,36.6a2,2,0,0,0,.37.22v11.7s-1.49,2.46,4.6,3c4.17.33,16,1.08,23,1.52l5.43.34s12.87,2.56,18.56,0,15.77-2.5,14.27-9.27a19.59,19.59,0,0,0-.8-2.71c-1.64-4.2-4.43-4.68-9.57-5.85l-.85-.17c-5.42-.94-7.2,1.58-10.24-1.7-2.63-2.84-11-6-13.9-7,.07-.21.16-.42.23-.63a4.35,4.35,0,0,1-2.17-1.06l7.75.49,4.62.28s10.94,2.19,15.8,0,13.39-2.12,12.12-7.87a17.36,17.36,0,0,0-.67-2.31c-1.4-3.56-3.78-4-8.15-4.95l-.72-.14c-4.6-.8-6.11,1.34-8.69-1.45-2.21-2.37-9.19-5-11.7-5.94,0-1.3-1.76-3.15-2.86-5-1.3-2.17,1.1-9.74,1.1-9.74l1.37-31.44a6.21,6.21,0,0,1,1.63-.47s6.19-5.91,4.79-12.2a41.11,41.11,0,0,1-.44-5.75c2-1.89,4.84-4.68,5.63-6.4,1.3-2.81,0-16.38,0-16.38V260.07l10.36,1.05,9.4,1,2.86.3,9.39.95,21.6,2.18,19.46-3.69,8.41-1.59L295.16,257V214.6ZM170.55,71.28l-1.2-.13C169.74,71.16,170.17,71.24,170.55,71.28Z"/><path id="路径_3" data-name="路径 3" class="cls-3" d="M271.08,239.14c-5.85,8.37-26.89,3.94-26.89,3.94l-16.3-15.26-2.19-2.06,3.68-7.82s1.17.32,3.18.9C243.09,221.9,276,232.1,271.08,239.14Z"/><path id="路径_4" data-name="路径 4" class="cls-4" d="M232.54,218.84a34.32,34.32,0,0,1-4.65,9l-2.19-2.06,3.68-7.82S230.56,218.26,232.54,218.84Z"/><path id="路径_5" data-name="路径 5" class="cls-5" d="M176.64,130.69s-15,6.67-14.29,23a269.77,269.77,0,0,0,3.45,31.45s-3.08,24.63,9.71,31,24.63,11.56,24.63,11.56,20,2.16,22.49,3,10.26-12.71,8.83-14.83-19.8-6.56-22.14-10.09-7.75-5.72-7.75-5.72-5.59-3.38-6-6.43,1.09-5.33,1.47-6.67,1.32-14.28,1.32-14.28S204.7,126.7,176.64,130.69Z"/><path id="路径_6" data-name="路径 6" class="cls-4" d="M186.56,184.5S166,188,167.94,195.17A43.75,43.75,0,0,1,186.56,184.5Z"/><path id="路径_7" data-name="路径 7" class="cls-4" d="M186.72,187.42s-11.34,9.25-9.12,9.72S186.72,187.42,186.72,187.42Z"/><path id="路径_8" data-name="路径 8" class="cls-4" d="M192.16,190.64s-3,6.22-1.17,5.8S192.16,190.64,192.16,190.64Z"/><path id="路径_9" data-name="路径 9" class="cls-4" d="M233.3,219.5l-1.25-.36a3.57,3.57,0,0,0,.17-2.55c-1.44-2.12-19.79-6.56-22.12-10.1s-7.76-5.71-7.76-5.71-5.58-3.38-6-6.44,1.09-5.33,1.46-6.67,1.33-14.28,1.33-14.28,6.29-46-21.77-42c0,0-15,6.67-14.29,23a267.62,267.62,0,0,0,3.45,31.45s-3.08,24.63,9.71,31,24.63,11.56,24.63,11.56,20,2.15,22.49,3c1,.34,2.65-1.41,4.32-3.82l.94.89L245,243.73s21,4.44,26.89-3.93C276.78,232.76,243.86,222.55,233.3,219.5Z"/><path id="路径_10" data-name="路径 10" class="cls-6" d="M168,69.27a5.25,5.25,0,0,0-1.62.63c-.58.49-.58,1.32-.73,2a6.67,6.67,0,0,1-1.17,2.8,4.18,4.18,0,0,0,1.95-.32,10.54,10.54,0,0,1-.58,2.34,1.89,1.89,0,0,0,1.75-1.07,10.74,10.74,0,0,0,.73-2.06,1.73,1.73,0,0,1,.28-.58c.54-.64,1.54-.35,2.37-.27a3.9,3.9,0,0,0,3.56-1.71c.88-1.34.94-4.77-1.17-5.13S169.79,68.61,168,69.27Z"/><g id="组_1" data-name="组 1" class="cls-7"><path id="路径_11" data-name="路径 11" d="M166.32,70.62c.05-.29.08-.59.15-.87h0a3.35,3.35,0,0,0-.73,2,6.42,6.42,0,0,1-.35,1.23A6.71,6.71,0,0,0,166.32,70.62Z"/><path id="路径_12" data-name="路径 12" d="M166.5,75.45a9.92,9.92,0,0,0,.59-2.34,4.09,4.09,0,0,1-1.86.32,6.12,6.12,0,0,1-.67,1.17,4,4,0,0,0,1.94-.31,9.44,9.44,0,0,1-.58,2.34,1.89,1.89,0,0,0,1.75-1.07,3.83,3.83,0,0,0,.35-.84,1.74,1.74,0,0,1-1.52.73Z"/><path id="路径_13" data-name="路径 13" d="M171.64,71.47c-.83-.08-1.84-.36-2.38.27a2.13,2.13,0,0,0-.28.59c0,.15-.1.31-.14.47.56-.44,1.46-.21,2.21-.13A3.92,3.92,0,0,0,174.61,71,3,3,0,0,0,175,70,3.88,3.88,0,0,1,171.64,71.47Z"/></g><path id="路径_14" data-name="路径 14" class="cls-5" d="M185.61,117.59l8.92,10.73-1.17,10.83-10.78-16.88Z"/><path id="路径_15" data-name="路径 15" class="cls-4" d="M194.52,128.32l-1.09,10.19-.07.64-9.73-15.23-1-1.65.3-.47,2.72-4.21.6.73Z"/><path id="路径_16" data-name="路径 16" class="cls-3" d="M199.15,103.07c-3,.86-5.9,3.83-8.41,7.44a65.35,65.35,0,0,0-4.54,7.81c-.82,1.65-1.55,3.23-2.15,4.62l-.42,1c-1,2.4-1.59,4-1.59,4s-23.11-17.37-19.45-18.54c1.23-.4,2.84-3,4.44-6.35l.2-.42c1-2.13,2-4.5,2.89-6.74,1.81-4.59,3.15-8.58,3.15-8.58S208.37,100.43,199.15,103.07Z"/><path id="路径_17" data-name="路径 17" class="cls-8" d="M213,86.32s5.34,9.66,12.5,8.34,4.22-5.18,4.22-5.18Z"/><path id="路径_18" data-name="路径 18" class="cls-9" d="M202.64,420.48c-4.73,2.16-15.41,0-15.41,0l-4.51-.28c-5.85-.38-15.64-1-19.11-1.29-5.05-.42-3.81-2.49-3.81-2.49V403.91l24.52-6.22s9.7,3.32,12.35,6.22,4,.64,8.5,1.43l.7.15c4.27,1,6.59,1.36,8,4.9a18,18,0,0,1,.66,2.28C215.75,418.37,207.36,418.33,202.64,420.48Z"/><path id="路径_19" data-name="路径 19" class="cls-4" d="M213.83,410.39a18.92,18.92,0,0,1-2.76,1.42c-3.22,1.46-6.28,3.25-9.53,4.64a22.19,22.19,0,0,1-10.28,2.11c-1.85-.13-3.73-.58-5.49-.06a12.66,12.66,0,0,0-3.05,1.7c-5.85-.38-15.64-1-19.11-1.29-5.05-.42-3.81-2.49-3.81-2.49V415c.18,0,.38,0,.62-.07a11.12,11.12,0,0,1,3.57.53l7.6,2.05a6,6,0,0,1,2.93-3.73,9.31,9.31,0,0,1,4.71-1.09c3.94.06,7.67,1.92,11.6,2.11a6.32,6.32,0,0,0,3.21-.54c.54-.27,1-.66,1.54-1a11.17,11.17,0,0,1,2.65-.89,57.73,57.73,0,0,0,7.58-2.45c.7-.27,1.52-.77,1.42-1.52-.12-1-1.68-1.11-2.09-2a1.16,1.16,0,0,1,.05-1l.7.15C210.14,406.46,212.46,406.85,213.83,410.39Z"/><path id="路径_20" data-name="路径 20" class="cls-9" d="M197.65,447.86c-5.56,2.54-18.14,0-18.14,0l-5.3-.31c-6.85-.44-18.4-1.17-22.48-1.52-5.95-.49-4.49-2.92-4.49-2.92V428.36L176.1,421s11.41,3.91,14.54,7.32c3,3.24,4.68.75,10,1.68l.82.17c5,1.17,7.75,1.61,9.36,5.78a17.86,17.86,0,0,1,.78,2.68C213.05,445.38,203.2,445.32,197.65,447.86Z"/><path id="路径_21" data-name="路径 21" class="cls-4" d="M210.81,436a21.61,21.61,0,0,1-3.25,1.66c-3.78,1.73-7.39,3.84-11.21,5.47a26.25,26.25,0,0,1-12.1,2.48c-2.17-.15-4.38-.7-6.44-.07a15.18,15.18,0,0,0-3.6,2c-6.85-.44-18.4-1.17-22.48-1.52-5.95-.49-4.49-2.92-4.49-2.92v-1.72l.73-.09a13.07,13.07,0,0,1,4.21.63l8.94,2.41a7,7,0,0,1,3.47-4.39,11,11,0,0,1,5.55-1.28c4.64.07,9,2.26,13.65,2.48a7.59,7.59,0,0,0,3.76-.62c.64-.33,1.17-.79,1.82-1.13a12.63,12.63,0,0,1,3.12-1.06,70.41,70.41,0,0,0,8.86-2.87c.83-.33,1.79-.92,1.68-1.79-.14-1.17-2-1.32-2.47-2.39a1.45,1.45,0,0,1,.06-1.22l.83.17C206.47,431.36,209.2,431.82,210.81,436Z"/><path id="路径_22" data-name="路径 22" class="cls-8" d="M185.07,346.65l-1.57,36.76s-2.34,7.5-1.07,9.65,3.41,4.29,2.64,5.56-10.14,15-13.17,9.73-6-28.08-6-28.08l2.8-28.19Z"/><path id="路径_23" data-name="路径 23" class="cls-8" d="M191.84,255.06l4.34,5.81v50.48s1.27,13.45,0,16.23-7.7,8.34-7.7,8.34l-5.41-27.79,1.17-29.4Z"/><path id="路径_24" data-name="路径 24" class="cls-4" d="M185.07,346.65l-1.57,36.76s-2.34,7.5-1.07,9.65,3.41,4.29,2.64,5.56-10.14,15-13.17,9.73-6-28.08-6-28.08l2.8-28.19Z"/><path id="路径_25" data-name="路径 25" class="cls-4" d="M191.84,255.06l4.34,5.81v50.48s1.27,13.45,0,16.23-7.7,8.34-7.7,8.34l-5.41-27.79,1.17-29.4Z"/><path id="路径_26" data-name="路径 26" class="cls-8" d="M196.18,233.53v27.31l-4.87,21.25s-1.56,51.3-.2,57.53-4.68,12.1-4.68,12.1-3.51.39-3.51,3.11-5.85,10.53-5.85,10.53l.19,15.22s2.54,28.47-1.36,33.93,1.36,6.24,1.36,6.24c-4.87,16-28.27,12.29-30.39,10.53s0-36.27,0-36.27,5.23-52.66,9.33-55,.2-5.26,1.56-8.77-1.36-13.07-1.36-13.07-1.17-11.31-4.1-16.77-2.54-20.48-2.54-20.48-8.19-10.92-10.62-15.21-4-15.4-3.42-23.79c.4-5.67,3.38-13.93,5.27-18.68.91-2.27,1.56-3.75,1.56-3.75l.56.15L175.06,228Z"/><path id="路径_27" data-name="路径 27" class="cls-4" d="M199.15,103.07c-3,.86-5.9,3.83-8.41,7.44h-.65A20.88,20.88,0,0,1,172,100a20.5,20.5,0,0,1-1.84-4.18c1.81-4.59,3.15-8.58,3.15-8.58S208.37,100.43,199.15,103.07Z"/><path id="路径_28" data-name="路径 28" class="cls-3" d="M211,88.44a20.92,20.92,0,1,1-39.13-10.25A20.67,20.67,0,0,1,174.09,75,20.9,20.9,0,0,1,211,86.91C211,87.42,211,87.93,211,88.44Z"/><path id="路径_29" data-name="路径 29" class="cls-4" d="M193.43,138.51l-.07.64-9.73-15.21c-1,2.41-1.59,4-1.59,4s-23.11-17.4-19.45-18.57c1.23-.4,2.84-3,4.44-6.35l.2-.42c1.7,5.06,11.55,15.16,15.65,19.21l1.17,1.13.63.59.33.33C186.5,125.42,192.8,132.2,193.43,138.51Z"/><path id="路径_30" data-name="路径 30" class="cls-5" d="M200.7,190.12l-1.07,34.27-.18,6.1s-12.62-1.17-24.39-2.46c-9.48-1-18.41-2.15-19.78-2.8-1.76-.83-5.52-1.47-8.49-1.87-2.29-.31-4.09-.47-4.09-.47a17.16,17.16,0,0,1-1.71.38c-2.26.41-6.23.75-8.54-1.26-2.95-2.57,4.81-11.9,6.75-14.14l.43-.49-.74-6.76L137,183.1s-1.17-10.09-2.92-15.5a28.23,28.23,0,0,1-1-4.71,37.6,37.6,0,0,1,1-14.78,32.27,32.27,0,0,0,1.05-6.25c.29-5.42,16.82-26.33,20.92-28.23a8.73,8.73,0,0,0,4.19-4.18,7.85,7.85,0,0,0,.63-1.82C162.59,100,167,103,167,103c1.07,5.95,17.64,21.7,17.64,21.7l.33.33c1.65,1.69,9,9.6,8.45,16.35a19.77,19.77,0,0,0,1.11,7.39,125,125,0,0,1,5.76,32.77Z"/><path id="路径_31" data-name="路径 31" class="cls-4" d="M177.22,149.43s-4.1,9.95-7.17,11.56S178.68,164.38,177.22,149.43Z"/><path id="路径_32" data-name="路径 32" class="cls-4" d="M180.29,168s-9.36,1.17-9.36,2.92S180.29,168,180.29,168Z"/><path id="路径_33" data-name="路径 33" class="cls-4" d="M190.09,179.42s-13.61,29-17.41,29.83S190.09,179.42,190.09,179.42Z"/><path id="路径_34" data-name="路径 34" class="cls-4" d="M184.42,126.21l-11.25,4.89-13.58-20.51a8.37,8.37,0,0,0,.64-1.82c1.75-7.6,6.19-4.59,6.19-4.59,1.07,5.95,17.65,21.7,17.65,21.7Z"/><path id="路径_35" data-name="路径 35" class="cls-5" d="M185,125l-11.25,4.89-13.58-20.51a7.88,7.88,0,0,0,.64-1.82C162.57,100,167,103,167,103c1.07,5.95,17.64,21.7,17.64,21.7Z"/><path id="路径_36" data-name="路径 36" class="cls-4" d="M199.45,230.49s-12.62-1.17-24.39-2.46l21.12,5.53V240c-.92.84-1.72,1.27-2.24,1.05-2.44-1-22.3-4.25-22.3-4.25s-11.54-5.85-24-12.87a9.16,9.16,0,0,1-.88-.55,13.6,13.6,0,0,1-3.68-3.69c-2.3-3.33-3.42-7.6-3.91-11.8a51.46,51.46,0,0,1-.3-7.24,59.22,59.22,0,0,1,.75-8.19,268.78,268.78,0,0,1-1.76-31.59c.15-16.38,15.5-22.23,15.5-22.23,28.23-2.49,19.48,43.15,19.48,43.15s-1.63,12.87-2.08,14.18-2,3.51-1.82,6.59,5.61,6.74,5.61,6.74,5.26,2.47,7.44,6.13c1.57,2.69,11.84,6.35,17.63,9Z"/><path id="路径_37" data-name="路径 37" class="cls-4" d="M208.9,75.45a6.73,6.73,0,0,1-.58,2.8,17.54,17.54,0,0,1-1,2.08,9.55,9.55,0,0,1-2.57,3.18A13,13,0,0,1,200,85.14a6.79,6.79,0,0,0-4.23,2.4,8.59,8.59,0,0,0-1,2.87,6,6,0,0,1-1.17,2.77,2.27,2.27,0,0,1-2.73.65,2.7,2.7,0,0,1-1.06-1.36,19.41,19.41,0,0,1-1.11-4.79,10.23,10.23,0,0,0-1.64-4.59,4.11,4.11,0,0,0-4.32-1.66,4.17,4.17,0,0,0-2.34,2.27,13,13,0,0,0-.88,3.23q-1.09,6-2.57,11.84a1.08,1.08,0,0,1-.2.45.83.83,0,0,1-.58.24c-1.31.18-2.57-.74-3.89-.64a2.9,2.9,0,0,0-.41.06A20.92,20.92,0,0,1,174,75l.1,0a6.23,6.23,0,0,0,2.34-1.47,24.06,24.06,0,0,0,2.34-2.71l.47-.58a27.15,27.15,0,0,1,4.56-4.34A4.63,4.63,0,0,1,185.4,65a4.54,4.54,0,0,1,1.47-.05,37.6,37.6,0,0,0,6.09.23,38.53,38.53,0,0,1,4.28-.43c3.71.1,6.86,2.72,9.2,5.58A8.62,8.62,0,0,1,208.9,75.45Z"/><path id="路径_38" data-name="路径 38" class="cls-6" d="M169.14,78.75c-.81,1.33-2.28,2.24-2.83,3.7-.81,2.12.56,4.77-.7,6.66-.41.64-1.1,1.12-1.33,1.85-.4,1.23.69,2.55.41,3.82s-1.95,2.34-1.51,3.58a2.32,2.32,0,0,0,1.29,1.17,5,5,0,0,0,2.92.65c1.6-.27,2.79-1.83,4.41-2,1.31-.09,2.57.82,3.88.65a.93.93,0,0,0,.59-.25,1.06,1.06,0,0,0,.19-.45q1.47-5.88,2.57-11.84a12.88,12.88,0,0,1,.88-3.23,4.2,4.2,0,0,1,2.34-2.27,4.13,4.13,0,0,1,4.32,1.66,10.12,10.12,0,0,1,1.65,4.59,19.86,19.86,0,0,0,1.1,4.79,2.77,2.77,0,0,0,1.06,1.37,2.29,2.29,0,0,0,2.74-.66,6.1,6.1,0,0,0,1.17-2.77,8.37,8.37,0,0,1,1-2.87,6.75,6.75,0,0,1,4.23-2.39,13.39,13.39,0,0,0,4.68-1.64,9.61,9.61,0,0,0,2.56-3.17,9.41,9.41,0,0,0,1.6-4.89A9,9,0,0,0,206,69.8c-2.34-2.87-5.5-5.48-9.21-5.58a35.9,35.9,0,0,0-4.27.43,36.42,36.42,0,0,1-6.09-.23,4.9,4.9,0,0,0-1.48,0,4.42,4.42,0,0,0-1.55.84,26.77,26.77,0,0,0-4.57,4.33A33.86,33.86,0,0,1,176,72.92a6.39,6.39,0,0,1-2.34,1.48c-.58.16-1.17,0-1.72.23C170.17,75.17,169.94,77.42,169.14,78.75Z"/><path id="路径_39" data-name="路径 39" class="cls-4" d="M225.48,94.65c-4.68.86-8.56-2.92-10.7-5.68a23.75,23.75,0,0,1-1.8-2.65l16.07,3,.64.13S232.65,93.34,225.48,94.65Z"/><g id="组_2" data-name="组 2" class="cls-7"><path id="路径_40" data-name="路径 40" d="M164.69,93.1a4.91,4.91,0,0,0-.34-2.24c0,.06,0,.11-.07.17a4.41,4.41,0,0,0,.3,2.41A1.35,1.35,0,0,0,164.69,93.1Z"/><path id="路径_41" data-name="路径 41" d="M166.08,83.53a13,13,0,0,0,0,2.42A13.05,13.05,0,0,0,166.08,83.53Z"/><path id="路径_42" data-name="路径 42" d="M206.71,78.06a9.62,9.62,0,0,1-2.56,3.18,13.3,13.3,0,0,1-4.68,1.63,6.75,6.75,0,0,0-4.23,2.39,8.59,8.59,0,0,0-1,2.87,6,6,0,0,1-1.17,2.78,2.27,2.27,0,0,1-2.73.65,2.87,2.87,0,0,1-1.07-1.36,19.46,19.46,0,0,1-1.09-4.8,10.28,10.28,0,0,0-1.65-4.59,3.69,3.69,0,0,0-6.66.62,12.47,12.47,0,0,0-.88,3.23q-1.09,6-2.57,11.84a1,1,0,0,1-.2.44.79.79,0,0,1-.58.25c-1.31.17-2.57-.74-3.89-.65-1.62.12-2.81,1.69-4.4,1.95a5,5,0,0,1-2.93-.65,3.37,3.37,0,0,1-1.07-.76,1.57,1.57,0,0,0-.22,1.36,2.35,2.35,0,0,0,1.29,1.17,5,5,0,0,0,2.93.65c1.59-.26,2.78-1.83,4.4-1.94,1.32-.1,2.58.82,3.89.65a.84.84,0,0,0,.58-.26,1,1,0,0,0,.2-.44q1.47-5.85,2.57-11.84a12.47,12.47,0,0,1,.88-3.23,4.17,4.17,0,0,1,2.34-2.27,4.13,4.13,0,0,1,4.32,1.65,10.2,10.2,0,0,1,1.65,4.6,19.06,19.06,0,0,0,1.1,4.79,2.77,2.77,0,0,0,1.06,1.37,2.29,2.29,0,0,0,2.73-.66,6,6,0,0,0,1.17-2.78,8.54,8.54,0,0,1,1-2.86,6.86,6.86,0,0,1,4.23-2.4A13.24,13.24,0,0,0,204.15,83a9.52,9.52,0,0,0,2.56-3.18A9.28,9.28,0,0,0,208.32,75c0-.22,0-.45-.07-.67a11.55,11.55,0,0,1-1.54,3.78Z"/></g><path id="路径_43" data-name="路径 43" class="cls-4" d="M208.34,78.23a20.65,20.65,0,0,1,2.6,8.69c-5.21-2.93-10.11-6.14-12.59-7.26C194,77.72,177.92,78,171.86,78.19A19.94,19.94,0,0,1,174.07,75a21.15,21.15,0,0,1,4.82-4.23,20.94,20.94,0,0,1,28.89,6.46c.2.32.4.65.59,1Z"/><path id="路径_44" data-name="路径 44" class="cls-4" d="M226.94,92.17c-2.81.87-7.4-.8-12.16-3.2a23.75,23.75,0,0,1-1.8-2.65l16.07,3C230.11,90.08,230.38,91.11,226.94,92.17Z"/><path id="路径_45" data-name="路径 45" class="cls-8" d="M191.33,58s-15.35-.88-19.67,7.46L171,72.8l-1.17-.13-.23,5s23.47-1,28.81,1.39S220.31,93.64,227,91.59s-.58-4-.58-4-9.16-3.88-9.16-6.92S215,61.6,191.33,58Z"/><path id="路径_46" data-name="路径 46" class="cls-4" d="M161.71,331.87s9.8,9.51,14,8.78C175.75,340.65,163.76,339.62,161.71,331.87Z"/><path id="路径_47" data-name="路径 47" class="cls-4" d="M159.66,336.28s.88,4.89,3.22,4.41S159.66,336.28,159.66,336.28Z"/><path id="路径_48" data-name="路径 48" class="cls-4" d="M175,418s-13.91,10.82-11.57,11.12S175,418,175,418Z"/><path id="路径_49" data-name="路径 49" class="cls-9" d="M193.63,203.2l45.05-7.33v42.65l-42.8-2.24Z"/><path id="路径_50" data-name="路径 50" class="cls-10" d="M193.63,203.2l45.05-7.33v42.65l-42.8-2.24Z"/><path id="路径_51" data-name="路径 51" class="cls-9" d="M238.68,195.87l54,4-3,37.11-51,1.49Z"/><path id="路径_52" data-name="路径 52" class="cls-4" d="M238.68,195.87l54,4-3,37.11-51,1.49Z"/><path id="路径_53" data-name="路径 53" class="cls-9" d="M255.29,182.86l-16.61,13,54,4,8.82-13.32Z"/><path id="路径_54" data-name="路径 54" class="cls-9" d="M177.32,189l40.56-4.94,20.8,11.82-45.05,7.33Z"/><path id="路径_55" data-name="路径 55" class="cls-9" d="M248.56,207v58.31l-21.11-2.16-9.18-.94-2.79-.29-9.18-.94-12.67-1.3V203.2l45.05,3.07Z"/><path id="路径_56" data-name="路径 56" class="cls-9" d="M292.71,199.92v56.86L275.79,260l-8.22,1.58-19,3.65V207Z"/><path id="路径_57" data-name="路径 57" class="cls-10" d="M292.71,199.92v56.86L275.79,260l-8.22,1.58-19,3.65V207Z"/><path id="路径_58" data-name="路径 58" class="cls-9" d="M177.32,215.48l16.31-12.28L248.56,207l-8.09,13.62Z"/><path id="路径_59" data-name="路径 59" class="cls-11" d="M177.32,215.48l16.31-12.28L248.56,207l-8.09,13.62Z"/><path id="路径_60" data-name="路径 60" class="cls-9" d="M292.71,199.92l-44.15,7,14.37,12.87,47.29-7.93Z"/><path id="路径_61" data-name="路径 61" class="cls-11" d="M292.71,199.92l-44.15,7,14.37,12.87,47.29-7.93Z"/><path id="路径_62" data-name="路径 62" class="cls-11" d="M275.79,260l-8.22,1.58V249.46l7.7-1.94Z"/><path id="路径_63" data-name="路径 63" class="cls-11" d="M227.45,255.06v8l-9.18-.94v-7.1Z"/><path id="路径_64" data-name="路径 64" class="cls-11" d="M215.48,257.59v4.28l-9.18-.94v-3.34Z"/><path id="路径_65" data-name="路径 65" class="cls-4" d="M243,250.79c-6.29,8-27.05,2.49-27.05,2.49l-15.44-16.1L198.45,235l4.09-7.61,3.13,1.07C216,232.07,248.33,244,243,250.79Z"/><path id="路径_66" data-name="路径 66" class="cls-3" d="M242.45,249.62c-6.29,8.05-27.06,2.49-27.06,2.49L200,236l-2.1-2.18,4.1-7.61s1.17.39,3.12,1.07C215.43,230.9,247.74,242.85,242.45,249.62Z"/><path id="路径_67" data-name="路径 67" class="cls-4" d="M205.06,227.29a35,35,0,0,1-5.13,8.72l-2.09-2.18,4.09-7.61S203.11,226.61,205.06,227.29Z"/><path id="路径_68" data-name="路径 68" class="cls-5" d="M154,136.3s-15.36,5.85-15.5,22.23a268.77,268.77,0,0,0,1.75,31.59s-4.39,24.43,8,31.45,24,12.87,24,12.87,19.86,3.22,22.3,4.24,10.92-12.14,9.61-14.33-19.4-7.61-21.55-11.26-7.44-6.12-7.44-6.12-5.39-3.68-5.61-6.75,1.38-5.27,1.83-6.59,2.08-14.18,2.08-14.18S182.19,133.78,154,136.3Z"/><path id="路径_69" data-name="路径 69" class="cls-4" d="M161,190.53s-20.77,2.34-19.16,9.66A43.7,43.7,0,0,1,161,190.53Z"/><path id="路径_70" data-name="路径 70" class="cls-4" d="M161,193.46s-11.79,8.63-9.62,9.21S161,193.46,161,193.46Z"/><path id="路径_71" data-name="路径 71" class="cls-4" d="M166.25,197s-3.37,6.05-1.47,5.73S166.25,197,166.25,197Z"/><path id="路径_72" data-name="路径 72" class="cls-9" d="M382.49,65.75S360.26,64.41,362.86,80a3.81,3.81,0,0,0,2,4s0-1.17,2.28-.77a10.26,10.26,0,0,0,2.41.12,5,5,0,0,0,3-1.22h0s6.26-2.58,8.69-12.81c0,0,1.8-2.24,1.76-2.81l-3.76,1.61s1.28,2.71.27,5c0,0-.12-4.86-.84-4.75-.15,0-1.95.94-1.95.94s2.21,4.72.54,8.15c0,0,.63-5.81-1.23-7.81l-2.64,1.55s2.58,4.87.83,8.85c0,0,.45-6.1-1.39-8.48l-2.4,1.87s2.43,4.81.95,8.11c0,0-.19-7.11-1.47-7.65a14.65,14.65,0,0,0-2.41,2.61s1.66,3.51.63,5.33c0,0-.64-4.73-1.17-4.75,0,0-2.09,3.13-2.31,5.26a11.34,11.34,0,0,1,1.8-5.58,6.22,6.22,0,0,0-3.2,1.66s.32-2.22,3.71-2.41a16.36,16.36,0,0,1,2.19-2.53,13.68,13.68,0,0,0-5.41.63s1.79-2.09,6-1.17L372.05,71s-4.43-.58-6.32.07c0,0,2.17-1.85,7-.5L375.26,69a23,23,0,0,0-6-.52s2.38-1.29,6.79.1l1.84-.82s-2.77-.55-3.58-.64-.85-.31-.85-.31a9.64,9.64,0,0,1,5.2.59S382.58,66,382.49,65.75Z"/><path id="路径_73" data-name="路径 73" class="cls-1" d="M450,143.76s-22.23-1.34-19.63,14.26a3.81,3.81,0,0,0,2,4s0-1.17,2.28-.77a9.81,9.81,0,0,0,2.42.12,5.05,5.05,0,0,0,2.93-1.22h0s6.26-2.58,8.69-12.81c0,0,1.8-2.23,1.73-2.8l-3.76,1.6s1.28,2.71.27,5c0,0-.12-4.86-.84-4.75-.14,0-1.95.94-1.95.94s2.21,4.72.54,8.15c0,0,.63-5.81-1.23-7.81l-2.62,1.53s2.58,4.87.83,8.85c0,0,.45-6.1-1.38-8.48l-2.4,1.88s2.43,4.8,1,8.1c0,0-.19-7.1-1.47-7.64a14.65,14.65,0,0,0-2.41,2.61s1.66,3.51.63,5.33c0,0-.63-4.74-1.17-4.76,0,0-2.09,3.14-2.31,5.27a11.49,11.49,0,0,1,1.81-5.59,6.3,6.3,0,0,0-3.2,1.66s.32-2.22,3.71-2.41a14.87,14.87,0,0,1,2.19-2.53,13.68,13.68,0,0,0-5.41.63s1.79-2.09,6-1.14l2.34-1.93s-4.44-.59-6.32.06c0,0,2.17-1.85,7-.5l2.57-1.54a23.51,23.51,0,0,0-6-.52s2.38-1.28,6.79.1l1.84-.82s-2.77-.54-3.58-.63-.86-.31-.86-.31a9.66,9.66,0,0,1,5.21.58S450.11,144,450,143.76Z"/><path id="路径_74" data-name="路径 74" class="cls-1" d="M315,129.92s5.12-21.7-10.7-21.78A3.8,3.8,0,0,0,300,109.4s1.13.24.36,2.38a10.55,10.55,0,0,0-.52,2.34,5,5,0,0,0,.69,3.12h0S302,123.85,311.65,128c0,0,1.89,2.15,2.47,2.17l-.94-4s-2.89.8-4.94-.58c0,0,4.82.7,4.82,0,0-.15-.58-2.09-.58-2.09s-5,1.37-8.13-.86c0,0,5.63,1.62,7.91.13l-1.05-2.88s-5.27,1.71-8.87-.69c0,0,5.94,1.48,8.6.08l-1.44-2.68s-5.15,1.57-8.15-.45c0,0,7,1,7.78-.14a14.56,14.56,0,0,0-2.16-2.83s-3.72,1-5.35-.28c0,0,4.76.18,4.87-.33,0,0-2.73-2.59-4.81-3.17a11.5,11.5,0,0,1,5.2,2.72,6.28,6.28,0,0,0-1.09-3.43s2.13.7,1.76,4.09a14.42,14.42,0,0,1,2.11,2.59A13.67,13.67,0,0,0,310,110s1.76,2.13.1,6.14l1.5,2.66s1.36-4.27,1-6.24c0,0,1.46,2.45-.69,6.94l1.09,2.8a23.36,23.36,0,0,0,1.53-5.85s.86,2.56-1.26,6.68l.5,2s1-2.64,1.23-3.42.45-.79.45-.79a9.61,9.61,0,0,1-1.45,5S314.73,129.94,315,129.92Z"/><path id="路径_75" data-name="路径 75" class="cls-1" d="M266.3,137.31s-17.86-13.36-24.24,1.11a3.81,3.81,0,0,0-.55,4.44s.66-1,2.34.62a10,10,0,0,0,2,1.42,5,5,0,0,0,3.14.59h0s6.65,1.28,14.3-5.92c0,0,2.73-.88,3-1.39l-4-.71s-.42,3-2.5,4.29c0,0,2.57-4.13,1.9-4.43-.13-.06-2.14-.29-2.14-.29s-.75,5.16-4,7.11c0,0,3.73-4.51,3.27-7.2l-3.06-.17s-.52,5.5-4.18,7.86c0,0,3.73-4.85,3.51-7.84l-3,.24s-.61,5.34-3.66,7.29c0,0,3.74-6,3-7.19a14.6,14.6,0,0,0-3.45.85s-.53,3.83-2.4,4.8c0,0,2.07-4.3,1.65-4.6,0,0-3.47,1.47-4.83,3.14a11.4,11.4,0,0,1,4.58-3.67,6.28,6.28,0,0,0-3.58-.38s1.48-1.67,4.42,0a14.68,14.68,0,0,1,3.22-.91A13.73,13.73,0,0,0,246,134s2.65-.76,5.67,2.34l3-.31s-3.37-2.92-5.31-3.41c0,0,2.83-.36,6.09,3.39l3,.14a23.56,23.56,0,0,0-4.75-3.76s2.69.24,5.61,3.82l2,.33s-2-2-2.65-2.5-.55-.73-.55-.73a9.53,9.53,0,0,1,4,3.35S266.22,137.55,266.3,137.31Z"/><path id="路径_76" data-name="路径 76" class="cls-1" d="M325.74,13.21S307.89-.15,301.5,14.33a3.81,3.81,0,0,0-.55,4.43s.67-.94,2.34.62a10.41,10.41,0,0,0,2,1.42,5,5,0,0,0,3.15.59h0s6.64,1.28,14.29-5.93c0,0,2.74-.87,3-1.39l-4-.7s-.42,3-2.5,4.3c0,0,2.57-4.13,1.91-4.43-.14-.07-2.15-.29-2.15-.29s-.77,5.17-4.05,7.1c0,0,3.72-4.51,3.27-7.2l-3.06-.16s-.53,5.49-4.18,7.85c0,0,3.73-4.85,3.51-7.85l-3,.25s-.62,5.35-3.67,7.29c0,0,3.75-6,3-7.19a15,15,0,0,0-3.45.85s-.53,3.83-2.41,4.8c0,0,2.08-4.3,1.66-4.6,0,0-3.47,1.47-4.83,3.14a11.3,11.3,0,0,1,4.57-3.67,6.27,6.27,0,0,0-3.58-.37s1.49-1.68,4.42,0a14.18,14.18,0,0,1,3.22-.9,13.76,13.76,0,0,0-4.87-2.46s2.65-.75,5.67,2.34l3-.31S310.75,9,308.81,8.46c0,0,2.83-.35,6.09,3.4l3,.13a23.15,23.15,0,0,0-4.76-3.75s2.69.24,5.62,3.82l2,.32s-2-2-2.66-2.45-.54-.73-.54-.73a9.65,9.65,0,0,1,4,3.35S325.64,13.44,325.74,13.21Z"/><path id="路径_77" data-name="路径 77" class="cls-1" d="M394,30.14S386.83,9,373.37,17.32a3.83,3.83,0,0,0-3,3.34s1.08-.4,1.56,1.82a10.91,10.91,0,0,0,.8,2.29A5.07,5.07,0,0,0,375,27.05h0s4.75,4.82,15.14,3.22c0,0,2.74.84,3.24.55L390.48,28s-2,2.2-4.49,2.11c0,0,4.46-1.94,4.09-2.56-.07-.13-1.6-1.46-1.6-1.46s-3.55,3.83-7.35,3.57c0,0,5.62-1.6,6.77-4.09l-2.42-1.87s-3.55,4.23-7.9,4.1c0,0,5.86-1.88,7.34-4.48l-2.64-1.51s-3.51,4-7.15,3.92c0,0,6.51-2.85,6.53-4.23a15,15,0,0,0-3.33-1.26s-2.61,2.85-4.68,2.6c0,0,4.15-2.37,4-2.86,0,0-3.69-.75-5.76-.15a11.4,11.4,0,0,1,5.85-.43A6.26,6.26,0,0,0,375,17s2.18-.54,3.64,2.53a14.8,14.8,0,0,1,3.16,1.08,13.72,13.72,0,0,0-2.62-4.78s2.62.88,3.33,5.16l2.68,1.46s-1.11-4.34-2.44-5.85c0,0,2.53,1.31,3.08,6.25l2.4,1.81a23.43,23.43,0,0,0-1.79-5.79s2.08,1.72,2.46,6.33l1.46,1.4s-.54-2.78-.76-3.56-.05-.84-.05-.84a9.69,9.69,0,0,1,1.43,5.05S393.77,30.29,394,30.14Z"/><path id="路径_78" data-name="路径 78" class="cls-1" d="M347.39,31.18s-22.17-2.47-20.34,13.26a3.81,3.81,0,0,0,1.75,4.1s.1-1.17,2.34-.64a10.89,10.89,0,0,0,2.41.24,5.07,5.07,0,0,0,3-1.07h0s6.38-2.27,9.36-12.36c0,0,1.9-2.14,1.86-2.72L344,33.41s1.17,2.77,0,5c0,0,.12-4.86-.58-4.79-.15,0-2,.84-2,.84s2,4.83.13,8.2c0,0,.92-5.79-.84-7.87L338,36.17s2.34,5,.38,8.88c0,0,.76-6.07-.95-8.53l-2.49,1.75s2.18,4.92.54,8.15c0,0,.17-7.11-1.08-7.71a15.55,15.55,0,0,0-2.55,2.48s1.48,3.57.37,5.35c0,0-.4-4.75-.91-4.8,0,0-2.25,3-2.57,5.16a11.4,11.4,0,0,1,2.08-5.49,6.3,6.3,0,0,0-3.28,1.5s.44-2.2,3.83-2.22c0,0,1.84-2.29,2.34-2.41a13.77,13.77,0,0,0-5.44.35s1.9-2,6.08-.84L336.76,36s-4.45-.9-6.34-.31c0,0,2.26-1.76,7-.15l2.65-1.41a23.44,23.44,0,0,0-6-.82s2.43-1.17,6.77.45L342.7,33s-2.74-.69-3.55-.82-.83-.35-.83-.35a9.62,9.62,0,0,1,5.17.85S347.43,31.43,347.39,31.18Z"/><path id="路径_79" data-name="路径 79" class="cls-1" d="M541.39,203.29s-22.16-2.47-20.33,13.24a3.8,3.8,0,0,0,1.76,4.1s.1-1.17,2.34-.65a10.27,10.27,0,0,0,2.41.24,5,5,0,0,0,3-1.07h0s6.39-2.27,9.33-12.35c0,0,1.91-2.14,1.87-2.72L538,205.49s1.17,2.78,0,5c0,0,.12-4.87-.59-4.79-.14,0-2,.84-2,.84s2,4.82.13,8.19c0,0,.92-5.78-.84-7.87l-2.72,1.41s2.34,5,.39,8.89c0,0,.75-6.07-1-8.54l-2.49,1.75s2.18,4.92.53,8.14c0,0,.17-7.1-1.07-7.7a15.55,15.55,0,0,0-2.55,2.48s1.49,3.57.36,5.36c0,0-.39-4.76-.9-4.81,0,0-2.25,3-2.58,5.16a11.34,11.34,0,0,1,2.09-5.48,6.18,6.18,0,0,0-3.28,1.49s.43-2.2,3.83-2.23c0,0,1.84-2.28,2.34-2.4a13.62,13.62,0,0,0-5.45.35s1.91-2,6.09-.84l2.46-1.8s-4.4-.83-6.32-.26c0,0,2.26-1.76,7-.15l2.65-1.41a23.47,23.47,0,0,0-6-.82s2.44-1.17,6.78.45l1.88-.74s-2.74-.68-3.55-.81-.83-.35-.83-.35a9.7,9.7,0,0,1,5.17.84S541.45,203.54,541.39,203.29Z"/><path id="路径_80" data-name="路径 80" class="cls-1" d="M575.27,224s-22.16-2.47-20.33,13.24a3.82,3.82,0,0,0,1.76,4.1s.1-1.17,2.34-.65a10.24,10.24,0,0,0,2.4.24,5.06,5.06,0,0,0,3-1.07h0s6.37-2.26,9.32-12.35c0,0,1.91-2.14,1.87-2.72l-3.83,1.41s1.17,2.77,0,5c0,0,.12-4.86-.59-4.78-.15,0-2,.84-2,.84s2,4.82.12,8.19c0,0,.93-5.78-.83-7.86L565.8,229s2.34,5,.38,8.89c0,0,.76-6.07-1-8.54l-2.48,1.76s2.17,4.92.53,8.14c0,0,.17-7.11-1.08-7.7a15.16,15.16,0,0,0-2.54,2.48s1.48,3.57.36,5.35c0,0-.39-4.75-.91-4.8,0,0-2.24,3-2.56,5.16a11.38,11.38,0,0,1,2.07-5.49,6.34,6.34,0,0,0-3.27,1.49s.43-2.2,3.83-2.21c0,0,1.84-2.29,2.34-2.41a13.57,13.57,0,0,0-5.44.35s1.9-2,6.08-.84l2.46-1.81s-4.4-.83-6.31-.26c0,0,2.25-1.75,7-.14l2.65-1.41a23.28,23.28,0,0,0-6-.83s2.44-1.17,6.77.45l1.89-.73s-2.75-.68-3.55-.81-.84-.35-.84-.35a9.67,9.67,0,0,1,5.17.84S575.33,224.24,575.27,224Z"/><path id="路径_81" data-name="路径 81" class="cls-1" d="M500.05,49.63s-17.85-13.35-24.23,1.12a3.79,3.79,0,0,0-.55,4.43s.66-.94,2.34.62a10.19,10.19,0,0,0,1.95,1.43,5,5,0,0,0,3.14.58h0s6.65,1.28,14.31-5.92c0,0,2.72-.88,3-1.39l-4-.73s-.42,3-2.5,4.3c0,0,2.57-4.13,1.9-4.43-.13-.06-2.14-.29-2.14-.29s-.75,5.16-4,7.11c0,0,3.73-4.52,3.27-7.21l-3.06-.16s-.52,5.49-4.18,7.86c0,0,3.74-4.85,3.52-7.85l-3,.25s-.58,5.34-3.66,7.28c0,0,3.75-6,3-7.18a14.6,14.6,0,0,0-3.45.85s-.52,3.82-2.4,4.79c0,0,2.07-4.3,1.65-4.6,0,0-3.47,1.47-4.83,3.15A11.42,11.42,0,0,1,480.57,50a6.28,6.28,0,0,0-3.58-.37s1.49-1.68,4.42,0a14.68,14.68,0,0,1,3.22-.91,13.73,13.73,0,0,0-4.87-2.45s2.65-.76,5.67,2.34l3-.31s-3.37-2.93-5.31-3.42c0,0,2.83-.36,6.09,3.4l3,.14a23.37,23.37,0,0,0-4.76-3.76s2.69.23,5.61,3.82l2,.32s-2-2-2.65-2.49-.54-.69-.54-.69a9.71,9.71,0,0,1,4,3.35S500,49.87,500.05,49.63Z"/><path id="路径_82" data-name="路径 82" class="cls-1" d="M513.85,146.06s-6.16-21.43-20-13.73a3.8,3.8,0,0,0-3.12,3.2s1.1-.35,1.48,1.89a10.54,10.54,0,0,0,.71,2.34,5,5,0,0,0,2.14,2.39h0s4.53,5,15,3.91c0,0,2.7.94,3.21.69l-2.76-3s-2.13,2.12-4.59,1.92c0,0,4.54-1.76,4.19-2.38-.07-.13-1.53-1.53-1.53-1.53s-3.71,3.66-7.5,3.24c0,0,5.69-1.35,6.95-3.77l-2.35-2s-3.73,4.06-8.06,3.75c0,0,5.89-1.63,7.52-4.15l-2.56-1.63s-3.72,3.89-7.32,3.6c0,0,6.63-2.56,6.71-3.93a14.82,14.82,0,0,0-3.27-1.41s-2.73,2.73-4.81,2.38c0,0,4.25-2.18,4.1-2.68,0,0-3.66-.91-5.76-.4a11.28,11.28,0,0,1,5.85-.17,6.18,6.18,0,0,0-2.63-2.46s2.2-.44,3.51,2.69a14.39,14.39,0,0,1,3.11,1.22,13.66,13.66,0,0,0-2.4-4.89s2.57,1,3.1,5.3l2.6,1.58s-.91-4.39-2.17-5.93c0,0,2.47,1.42,2.8,6.38l2.34,1.92a23.36,23.36,0,0,0-1.53-5.86s2,1.82,2.17,6.44l1.4,1.46s-.41-2.79-.59-3.59,0-.91,0-.91a9.6,9.6,0,0,1,1.2,5.11S513.64,146.2,513.85,146.06Z"/><path id="路径_83" data-name="路径 83" class="cls-1" d="M376.7,194.35s-11.95-18.82-23.05-7.56a3.78,3.78,0,0,0-2.09,4s1-.64,2,1.41a9.89,9.89,0,0,0,1.32,2,5,5,0,0,0,2.72,1.69h0s5.76,3.55,15.47-.47c0,0,2.86.15,3.29-.24L372.8,193s-1.44,2.64-3.86,3.13c0,0,3.88-2.92,3.36-3.46-.1-.11-1.91-1-1.91-1s-2.53,4.55-6.28,5.21c0,0,5.08-2.89,5.61-5.57l-2.81-1.24s-2.44,4.95-6.68,5.85c0,0,5.2-3.21,6-6.09l-2.92-.84s-2.47,4.78-6,5.51c0,0,5.64-4.32,5.33-5.66a14.39,14.39,0,0,0-3.51-.43s-1.86,3.39-3.95,3.63c0,0,3.46-3.28,3.17-3.72,0,0-3.76.15-5.63,1.23a11.35,11.35,0,0,1,5.58-1.81,6.23,6.23,0,0,0-3.21-1.62s2-1,4.1,1.59a14,14,0,0,1,3.32.3s-1.75-2.93-3.68-4c0,0,2.75.23,4.46,4.22l3,.78s-2.11-3.95-3.76-5.08c0,0,2.77.67,4.48,5.34l2.76,1.17a23.13,23.13,0,0,0-3.11-5.19s2.43,1.17,3.89,5.56l1.75,1s-1.17-2.56-1.58-3.27-.26-.87-.26-.87a9.53,9.53,0,0,1,2.58,4.55S376.54,194.55,376.7,194.35Z"/><path id="路径_84" data-name="路径 84" class="cls-9" d="M455.26,98.16S443.89,79,432.44,89.89a3.81,3.81,0,0,0-2.21,3.89s1-.62,1.91,1.45a10.13,10.13,0,0,0,1.26,2.07,5,5,0,0,0,2.67,1.76h0s5.64,3.73,15.48,0c0,0,2.85.24,3.29-.14l-3.44-2.21s-1.52,2.58-3.95,3c0,0,4-2.82,3.46-3.35-.11-.11-1.87-1.1-1.87-1.1s-2.68,4.48-6.44,5c0,0,5.17-2.74,5.78-5.39l-2.77-1.3s-2.59,4.87-6.86,5.65c0,0,5.3-3,6.24-5.9l-2.89-.93s-2.62,4.68-6.18,5.32c0,0,5.77-4.14,5.5-5.49a14.6,14.6,0,0,0-3.51-.54s-2,3.33-4.06,3.51c0,0,3.56-3.17,3.29-3.62,0,0-3.76,0-5.67,1.06A11.47,11.47,0,0,1,437.11,91a6.31,6.31,0,0,0-3.17-1.72s2-1,4.1,1.72a14.82,14.82,0,0,1,3.32.4,13.94,13.94,0,0,0-3.56-4.13s2.74.31,4.33,4.35l2.92.88s-2-4-3.59-5.2c0,0,2.74.76,4.31,5.48l2.72,1.27a23.43,23.43,0,0,0-2.92-5.27S448,90,449.29,94.47L451,95.54s-1.1-2.61-1.48-3.33-.23-.87-.23-.87A9.51,9.51,0,0,1,451.73,96S455.09,98.35,455.26,98.16Z"/><path id="路径_85" data-name="路径 85" class="cls-9" d="M383.34,138.5s.58-22.29-14.91-19.15a3.8,3.8,0,0,0-3.94,2.11s1.17,0,.84,2.25a10.4,10.4,0,0,0,0,2.43,4.94,4.94,0,0,0,1.32,2.92h0s2.79,6.17,13.09,8.26c0,0,2.29,1.73,2.86,1.63l-1.76-3.69s-2.66,1.37-4.95.44c0,0,4.86-.29,4.73-1,0-.15-1-1.93-1-1.93s-4.65,2.37-8.13.81c0,0,5.85.44,7.77-1.48l-1.64-2.59s-4.78,2.73-8.82,1.12c0,0,6.12.24,8.43-1.67l-1.95-2.34s-4.72,2.59-8.06,1.22c0,0,7.09-.43,7.6-1.72a15.24,15.24,0,0,0-2.69-2.34s-3.43,1.75-5.3.81c0,0,4.68-.79,4.71-1.31,0,0-3.2-2-5.36-2.13a11.39,11.39,0,0,1,5.65,1.62,6.35,6.35,0,0,0-1.76-3.15s2.23.26,2.54,3.63a14.48,14.48,0,0,1,2.59,2.11,13.76,13.76,0,0,0-.8-5.39s2.15,1.73,1.34,6l2,2.31s.45-4.46-.28-6.31c0,0,1.92,2.1.74,6.93l1.62,2.52a23.3,23.3,0,0,0,.32-6.05s1.36,2.34.12,6.79l.89,1.82s.45-2.79.51-3.61.28-.86.28-.86a9.58,9.58,0,0,1-.41,5.22S383.08,138.57,383.34,138.5Z"/><ellipse id="椭圆_2" data-name="椭圆 2" class="cls-1" cx="408.94" cy="419.07" rx="15.76" ry="2.66"/><ellipse id="椭圆_3" data-name="椭圆 3" class="cls-1" cx="351.5" cy="459.49" rx="15.76" ry="2.66"/><ellipse id="椭圆_4" data-name="椭圆 4" class="cls-1" cx="54.49" cy="438.78" rx="15.76" ry="2.66"/><ellipse id="椭圆_5" data-name="椭圆 5" class="cls-1" cx="471.01" cy="456.83" rx="15.76" ry="2.66"/><ellipse id="椭圆_6" data-name="椭圆 6" class="cls-9" cx="487.41" cy="423.05" rx="23.53" ry="3.98"/><path id="路径_86" data-name="路径 86" class="cls-9" d="M497.16,416.54a6.7,6.7,0,0,0,2.24-3.38,3,3,0,0,0-1.56-3.45c-1.44-.55-3,.45-4.15,1.45s-2.49,2.16-4,1.95a6.18,6.18,0,0,0,1.9-5.74,2.45,2.45,0,0,0-.53-1.17c-.8-.85-2.25-.48-3.21.19-3,2.14-3.89,6.27-3.91,10a19.28,19.28,0,0,1-.05-4.09c0-1.36-.38-2.93-1.55-3.64a4.65,4.65,0,0,0-2.34-.59,4.89,4.89,0,0,0-3.83,1.09c-1.17,1.24-.86,3.33.15,4.68a15.36,15.36,0,0,0,4,3.17,8.9,8.9,0,0,1,2.83,2.7,2.06,2.06,0,0,1,.21.48h8.58A23.64,23.64,0,0,0,497.16,416.54Z"/><path id="路径_87" data-name="路径 87" class="cls-12" d="M43.92,426.41s9-.28,11.7-2.21,13.82-4.23,14.5-1.13,13.5,15.38,3.35,15.46S49.9,437,47.2,435.3,43.92,426.41,43.92,426.41Z"/><path id="路径_88" data-name="路径 88" class="cls-13" d="M73.64,437.45c-10.14.09-23.57-1.57-26.27-3.22-2.06-1.26-2.88-5.76-3.16-7.83h-.29s.58,7.25,3.27,8.89,16.13,3.31,26.27,3.23c2.93,0,3.94-1.07,3.89-2.61C76.94,436.85,75.82,437.44,73.64,437.45Z"/></g></g></g></svg>